<svg xmlns="http://www.w3.org/2000/svg" xmlns:xlink="http://www.w3.org/1999/xlink" version="1.1" x="0px" y="0px" viewBox="0 0 100 100" xml:space="preserve">
    <path fill="#ffffff" d="M95,67.653v-7.742l-8.596-1.387c-0.584-2.521-1.575-4.884-2.905-7.017l4.919-6.887l-5.475-5.475  l-6.887,4.919c-2.118-1.321-4.464-2.308-6.965-2.893L67.653,33h-7.742l-1.438,8.172c-2.502,0.585-4.848,1.572-6.965,2.893  l-6.887-4.919l-5.475,5.475l4.919,6.887c-1.321,2.118-2.308,4.464-2.893,6.965L33,59.911v7.742l8.172,1.438  c0.585,2.502,1.572,4.847,2.893,6.965l-4.919,6.887l5.475,5.475l6.887-4.919c2.132,1.33,4.496,2.322,7.017,2.905L59.911,95h7.742  l1.387-8.596c2.521-0.584,4.884-1.575,7.017-2.905l6.887,4.919l5.475-5.475l-4.919-6.887c1.33-2.132,2.322-4.496,2.905-7.017  L95,67.653z M63.782,77.718c-7.697,0-13.936-6.24-13.936-13.936c0-7.697,6.239-13.936,13.936-13.936  c7.697,0,13.936,6.239,13.936,13.936C77.718,71.479,71.479,77.718,63.782,77.718z" />
    <path fill="#ffffff" d="M45.312,24.748l5.196-3.422l-1.454-3.588l-6.113,1.16c-1.292-2.032-3.017-3.805-5.107-5.179l1.256-6.1  L35.527,6.11l-3.505,5.147c-2.441-0.544-4.915-0.548-7.273-0.061L21.326,6l-3.588,1.454l1.16,6.113  c-2.032,1.292-3.805,3.017-5.179,5.107l-6.1-1.256L6.11,20.982l5.147,3.505c-0.544,2.441-0.548,4.915-0.061,7.273L6,35.182  l1.454,3.588l6.113-1.16c1.292,2.032,3.017,3.805,5.107,5.179l-1.256,6.1l3.565,1.509l3.505-5.147  c2.441,0.544,4.915,0.548,7.273,0.061l3.422,5.196l3.588-1.454l-1.16-6.113c2.032-1.292,3.805-3.017,5.179-5.106l6.1,1.256  l1.509-3.565l-5.147-3.505C45.794,29.58,45.799,27.107,45.312,24.748z M37.166,32.027c-2.084,4.922-7.763,7.223-12.685,5.139  c-4.922-2.084-7.223-7.763-5.139-12.685c2.084-4.922,7.763-7.223,12.685-5.139C36.949,21.426,39.25,27.105,37.166,32.027z" />
</svg>