<?xml version="1.0" encoding="UTF-8" standalone="no"?>
<svg
   id="Layer_1"
   data-name="Layer 1"
   viewBox="0 0 128.00001 128"
   version="1.1"
   sodipodi:docname="logo.svg"
   width="128"
   height="128"
   inkscape:version="1.3.2 (091e20ef0f, 2023-11-25, custom)"
   inkscape:export-filename="icon16.png"
   inkscape:export-xdpi="12"
   inkscape:export-ydpi="12"
   xmlns:inkscape="http://www.inkscape.org/namespaces/inkscape"
   xmlns:sodipodi="http://sodipodi.sourceforge.net/DTD/sodipodi-0.dtd"
   xmlns:xlink="http://www.w3.org/1999/xlink"
   xmlns="http://www.w3.org/2000/svg"
   xmlns:svg="http://www.w3.org/2000/svg"
   xmlns:rdf="http://www.w3.org/1999/02/22-rdf-syntax-ns#"
   xmlns:cc="http://creativecommons.org/ns#"
   xmlns:dc="http://purl.org/dc/elements/1.1/">
  <defs
     id="defs1">
    <linearGradient
       id="linearGradient22"
       inkscape:collect="always">
      <stop
         style="stop-color:#383c4a;stop-opacity:1;"
         offset="0"
         id="stop22" />
      <stop
         style="stop-color:#ffffff;stop-opacity:1;"
         offset="1"
         id="stop23" />
    </linearGradient>
    <filter
       style="color-interpolation-filters:sRGB;"
       inkscape:label="Drop Shadow"
       id="filter19"
       x="-0.039062398"
       y="-0.039799372"
       width="1.0781248"
       height="1.0795987">
      <feFlood
         result="flood"
         in="SourceGraphic"
         flood-opacity="0.498039"
         flood-color="rgb(56,60,74)"
         id="feFlood18" />
      <feGaussianBlur
         result="blur"
         in="SourceGraphic"
         stdDeviation="2.000000"
         id="feGaussianBlur18" />
      <feOffset
         result="offset"
         in="blur"
         dx="0.000000"
         dy="0.000000"
         id="feOffset18" />
      <feComposite
         result="comp1"
         operator="in"
         in="flood"
         in2="offset"
         id="feComposite18" />
      <feComposite
         result="comp2"
         operator="over"
         in="SourceGraphic"
         in2="comp1"
         id="feComposite19" />
    </filter>
    <linearGradient
       inkscape:collect="always"
       xlink:href="#linearGradient22"
       id="linearGradient23"
       x1="-2.7401856"
       y1="63.999998"
       x2="130.74018"
       y2="63.999998"
       gradientUnits="userSpaceOnUse" />
  </defs>
  <sodipodi:namedview
     id="namedview1"
     pagecolor="#ffffff"
     bordercolor="#000000"
     borderopacity="0.25"
     inkscape:showpageshadow="2"
     inkscape:pageopacity="0.0"
     inkscape:pagecheckerboard="0"
     inkscape:deskcolor="#d1d1d1"
     inkscape:zoom="7.130386"
     inkscape:cx="61.988229"
     inkscape:cy="62.689453"
     inkscape:window-width="1900"
     inkscape:window-height="1178"
     inkscape:window-x="10"
     inkscape:window-y="12"
     inkscape:window-maximized="1"
     inkscape:current-layer="Layer_1" />
  <title
     id="title1">download-file</title>
  <path
     d="m 87.139853,50.432459 a 7.71,7.71 0 1 1 10.8,11 l -29.29,28.88 a 7.72,7.72 0 0 1 -10.82,0 l -28.87,-28.51 a 7.711292,7.711292 0 1 1 10.81,-11 l 15.89,15.75 0.16,-55.47 a 7.72,7.72 0 0 1 15.43,0.13 l -0.15,55 z m -84.5799998,66.480001 0.1,-30.180001 a 7.72,7.72 0 1 1 15.4299998,0.14 l -0.07,22.000001 q 46,0.09 91.909997,0 l 0.07,-22.120001 a 7.7203174,7.7203174 0 1 1 15.44,0.14 l -0.1,30.000001 h -0.09 a 7.71,7.71 0 0 1 -7.64,7.36 q -53.729997,0.1 -107.379997,0 a 7.7,7.7 0 0 1 -7.6699998,-7.34 z"
     id="path1"
     style="fill:url(#linearGradient23);fill-opacity:1;stroke:none;stroke-opacity:1;filter:url(#filter19)" />
  <metadata
     id="metadata1">
    <rdf:RDF>
      <cc:Work
         rdf:about="">
        <dc:title>download-file</dc:title>
      </cc:Work>
    </rdf:RDF>
  </metadata>
</svg>
